<?xml version="1.0" encoding="utf-8"?>
<!-- Generator: Adobe Illustrator 27.9.0, SVG Export Plug-In . SVG Version: 6.00 Build 0)  -->
<svg version="1.1" id="Layer_1" xmlns="http://www.w3.org/2000/svg" xmlns:xlink="http://www.w3.org/1999/xlink" x="0px" y="0px"
	 viewBox="0 0 1080 1080" style="enable-background:new 0 0 1080 1080;" xml:space="preserve">
<style type="text/css">
	.st0{fill:#FF6347;}
</style>
<g>
	<path class="st0" d="M621.4,867.1c-43.3,0.7-79.3-10.2-112.7-30.3c-32.4-19.5-57.4-46.1-75.4-79.4c-8.1-15.1-18.2-28.5-32.4-38.6
		c-15.5-11-32.5-16.1-51.3-16.8c-16.3-0.6-31.5,4.2-47.1,7.7c-24.7,5.4-49.6,6.8-74.9,3.3c-37.7-5.3-71.2-20-101.2-43.2
		c-27.1-21-47-47.8-61.2-78.9c-10-22-15.8-45.1-17.8-69.2c-3.5-41.2,5.8-79.8,24.6-116.1c10.7-20.7,25.3-38.7,42.5-54.5
		c27.2-25,58.9-41.4,94.7-50c25.3-6.1,50.9-6.7,76.8-3.1c27.7,3.8,52.9,13.9,77.2,27c34.8,18.7,69.5,17.8,103.7-1.9
		c25.8-14.8,53.7-23.3,83.1-26.2c49-4.8,94.1,6.9,135.4,33.5c6.3,4.1,12.3,8.5,18.2,13.2c21,16.6,51,18.9,74.8,2
		c18-12.7,37.3-22.4,58.9-27.3c24.2-5.5,48.3-5.8,72.7-0.1c26.9,6.3,50.5,18.6,70.8,37c24.7,22.4,40.6,50.1,48.2,82.7
		c5.1,21.8,5.6,43.6,1.2,65.3c-5.6,27.7-17.5,52.7-36.2,74.1c-21.4,24.5-48.2,40.6-79.4,49.3c-12,3.3-24.4,5.7-35.7,10.7
		c-25.4,11.1-42.8,30.6-52.6,56.5c-5.4,14.3-9.3,29.2-14.7,43.5c-8,21-20.1,39.7-34.6,56.8c-19.7,23.3-43.7,41-71.2,53.7
		C677.9,860.9,648.4,868,621.4,867.1z M236.8,438.2c-0.7-0.1-1.5-0.1-2.2-0.2c-1.1-2.1-2.5-4.2-3.3-6.4c-2.4-6.6-4.1-13.4-7-19.8
		c-4.4-10-8.6-20.3-14.6-29.3c-8.7-12.9-25.7-13.8-37.7-3.7c-6.5,5.5-10.1,12.7-12.7,20.5c-6.6,19.9-7.8,40.5-7.9,61.2
		c-0.1,16.3-2.7,32.1-7,47.7c-4.6,16.5-9.7,32.9-13.5,49.6c-5.3,23.1,2.9,37,25.3,42.3c13.3,3.1,27.1,3.6,40.7,1
		c13.2-2.5,22.7-10.2,25.5-23.6c1.8-8.3,2.4-17.2,1.7-25.7c-2-21.6-10.1-41.6-17.8-61.6c-6.2-16-12.5-31.9-18.4-47.9
		c-1.2-3.1-2.8-8.1,1.5-9.8c4.9-1.9,6.5,3,7.7,6.5c4.1,12.5,7.2,25.3,11.8,37.6c2.9,7.8,6.8,15.7,11.9,22.2
		c6.7,8.6,17.3,8.1,24.9,0.4c2-2,4-4.2,5.2-6.6c6.2-12.7,12-25.6,18.1-38.3c2.4-5.1,5.1-10.1,8-14.9c0.6-1,3.2-1.9,3.6-1.5
		c1,0.9,2,2.8,1.8,4.1c-0.5,3.4-1.5,6.8-2.7,10.1c-9.1,25-18.5,49.9-27.4,75c-5.4,15.1-9.5,30.5-9.7,46.7
		c-0.2,15.9,5.5,25.4,20.3,31.4c2.9,1.2,6,2.1,9.1,2.7c11.7,2.2,23.4,3.6,35.2,0.5c17.3-4.6,26.9-19.1,26.1-38.8
		c-0.6-15.6-6.1-29.9-11.9-44.1c-5.8-14.3-9.1-28.9-7.3-44.3c1.1-9.4,2.7-18.8,3.6-28.2c1.8-18.1,2.2-36.2-4.2-53.8
		c-7.9-21.9-35.1-27.8-51.2-10.9c-9.8,10.3-14.3,23.4-19.3,36.3C241,429,238.8,433.6,236.8,438.2z M495.4,505.7
		c-0.8-4.7-1.6-14.3-4.1-23.3c-7.3-25.5-26.5-41.9-53.1-42.9c-17.5-0.7-32.2,7.1-44.2,19.1c-26.8,26.8-41.8,59.7-47,97
		c-2.9,20.6-1.8,40.9,7.3,60.1c5.5,11.5,14,19.9,26,24.2c21,7.5,40.6,4.1,58.7-8.8c16-11.4,27.4-26.5,36.5-43.6
		C488.3,563.4,495.1,537.7,495.4,505.7z M520.4,514.9c0,3.3,0,6.7,0,10c-0.3,17.6-1.2,35.3,3.3,52.7c7.8,30,31.1,38.6,56.1,33.8
		c13.4-2.6,22-12.5,28.3-24.2c6.9-12.7,10.5-26.6,13.5-40.6c4-19,7-38.3,13.8-56.7c4.5-12.3,7.8-25.1,10.8-37.9
		c1.9-8.1,1.9-16.6-2.3-24.4c-4-7.5-11-9.7-18.9-9.8c-7.5-0.1-12.1,4.2-14.7,10.7c-1.7,4.1-2.9,8.5-4.3,12.8
		c-7,22-13.8,44.1-21,66.1c-1.3,3.9-2.5,9.5-7.8,9.2c-4.9-0.4-6.2-5.8-7-9.9c-2.5-12-5-24.1-6.5-36.3c-1.7-14-2.1-28.2-3.6-42.3
		c-1.3-12.2-6.7-19-17.4-20.9c-14.6-2.6-23.2,2-24.5,16.3c-0.4,4.6-0.5,9.3,0,13.9C520.8,463,524.5,488.8,520.4,514.9z M705.2,485.1
		c0.3,25.8,4.6,49.9,14.4,72.5c4.7,10.7,10.6,21.4,18.1,30.2c10.3,12,23.9,19,40.8,15.4c2.8-0.6,5.6-1,8.3-1.8
		c8.2-2.4,17.1-3.7,24.5-7.6c16.8-8.8,23.3-30.8,16.4-51.2c-6.9-20.3-19.2-27.2-39.8-22.1c-10.3,2.5-20.5-1.7-24.8-10.2
		c-3.8-7.6-1.7-12.5,6.5-14.7c5.1-1.4,10.3-2.4,15.5-3.7c8.8-2.1,13.8-6.8,14.2-13.3c0.5-7.3-3.9-14.8-10.8-16.8
		c-4.7-1.3-9.8-1.5-14.7-1.6c-5.3-0.1-10.6,0.8-15.9,0.6c-2-0.1-4-2.1-5.9-3.2c1.6-1.2,3-2.8,4.8-3.5c2.6-0.9,5.5-1.1,8.2-1.7
		c6.9-1.7,13.9-3.1,20.6-5.3c4.3-1.4,6.2-5.1,6-9.9c-0.5-8.4-5.9-12.7-12.8-15.6c-9.7-4-19.6-3.5-29.9-2
		c-17.3,2.5-29.6,11.3-36.9,26.9C706.1,459.1,705.5,472.7,705.2,485.1z M854.1,495.9c-14-0.8-28.5,13.6-24.9,30.4
		c1,4.8,3,9.6,5.4,13.8c11.3,19.3,42.3,30.4,62.5,26c9.8-2.1,19.5-5.4,28.7-9.5c22.4-10,33.3-32.6,27.9-56.4
		c-4.2-18.4-16.1-30.8-33.1-37.3c-15.4-5.8-31.8-9.3-47.6-14.1c-6.6-2-13.5-4-19.4-7.4c-9.1-5.2-8.6-14.9,0.6-20.1
		c2.4-1.4,5.1-2.3,7.8-3.1c7.8-2.3,15.9-3.7,23.4-6.7c10.8-4.5,11.5-16.9,2.1-23.9c-5.2-3.9-11.5-5.1-17.5-4.6
		c-20.5,1.9-38.1,10.5-51.8,25.9c-16.8,19-13.6,47.6,7.4,61.7c9.4,6.3,20.5,9.9,31,14.4c7.7,3.3,15.8,5.9,23.4,9.5
		c1.7,0.8,2.1,4.2,3.1,6.5c-2.1,0.4-4.1,1-6.2,1.1c-1.3,0.1-2.5-0.6-3.8-1C866.8,499.4,860.5,497.7,854.1,495.9z M667,617.4
		c0-0.2,0-0.4,0.1-0.5c8.8-0.6,17.6-1,26.4-1.7c9.1-0.8,16.8-7.4,18.5-16.4c0.9-4.5,1.7-9.5,0.7-13.8c-2.9-13.5-5.8-27-10.2-40
		c-5.8-17.3-13.7-34-15.3-52.6c-0.4-5.1-1.1-10.3-2.4-15.3c-2.1-7.9-9.9-12.1-19-10.9c-8.2,1.1-13.4,6.4-13.7,14.5
		c-0.2,7.2-0.2,14.3,0.1,21.5c0.6,14.4-1,28.6-4.9,42.5c-4.4,15.6-8.3,31.3-6.9,47.7c0.8,9.7,2.9,19.3,13.4,23.2
		C657.9,617.2,662.6,616.9,667,617.4z M577.4,757.4c-2.6-4.3-6.7-7.5-12.6-6.9c-2.1,0.2-3.5,0.5-5.5-1.3c-1.5-1.4-6.2-4.9-7.8-0.3
		c-3,8.5-4.9,17.5-7.2,26.2c8.6,3.3,8.6,3.3,10.8-5c0.9-3.2,1.4-6.6,3-9.4c0.9-1.6,4.2-3.3,5.4-2.7c2,0.8,3.5,3.3,4.6,5.5
		c0.5,1.1-0.4,2.9-0.8,4.3c-1,4.3-2.1,8.5-3.2,13c1.5,0.4,2.3,0.5,3,0.9c4.1,2.2,6.4,1.3,7.1-3.6c0.5-3.4,1.7-6.8,2.7-10.1
		c1-3.4,3-5.8,6.8-4.7c3.7,1.1,5.1,3.8,4,7.8c-1.4,4.9-2.5,9.8-3.8,14.8c2.1,0.8,3.7,1.9,5.2,1.8c1.5-0.1,3.9-1.1,4.3-2.3
		c1.7-5,3.1-10.2,4-15.4c1.3-7.4-2.7-13.2-10-14C584.4,755.5,581.1,756.8,577.4,757.4z M666.9,426.6c-9.9,0-17.5,6.5-17.6,15.1
		c-0.2,8.4,7.4,15.3,16.8,15.5c9.7,0.1,18.1-7.1,18-15.6C683.9,433,676.6,426.6,666.9,426.6z M681.6,740c9,12.8,17.3,24.6,25.5,36.3
		c8.3-4.4,8.3-4.4,3.4-11.4c-1.6-2.3-3.2-4.5-4.9-7c11.7-2.6,16.4-9,13.4-18.2c-2-5.9-5.7-10.7-12.3-11.9
		c-6.2-1.1-11.1,0.9-14.1,6.9c-0.4,0.7-1.3,1.3-2.2,1.7C687.8,737.5,685.1,738.6,681.6,740z M709.9,719.8c0.6,1.2,0.7,1.7,1,2
		c9.8,8.7,19.6,17.4,29.6,26c0.8,0.7,3.1,0.5,4.1-0.2c1.6-1.1,2.6-2.9,4.1-4.7c-4.1-3.7-8-7.2-12-10.8c10.1-6.6,12.4-10.5,10.4-17.1
		c-2.3-7.3-9.5-12.7-16.7-12.6c-6.3,0.1-10.2,3.9-13.1,11.2C714.7,715.7,712.3,717.8,709.9,719.8z M479.4,725.9
		c4.2,3.9,8.2,8.4,12.9,12.1c7,5.5,15.1,4.9,22-0.7c7.3-5.9,10.1-14.8,5.6-22.2c-3.7-6.1-9.1-11.1-13.9-16.7
		C496.7,708,488.3,716.7,479.4,725.9z M655.1,783.1c5.2-2.1,10.3-1.8,9.5-8.4c-0.1-0.9,1.5-2.5,2.6-3.1c2.5-1.2,5.2-2.2,7.9-2.9
		c1-0.3,2.9-0.1,3.3,0.6c3.8,5.9,7.5,2.1,11.5,0.4c-0.1-0.8-0.1-1.4-0.4-1.7c-7.7-9-15.1-18.2-23.2-26.8c-1.2-1.3-5.4-0.2-8,0.6
		c-1.4,0.4-3.1,2.6-3.2,4.1C655,758,655.1,769.9,655.1,783.1z M524.3,748.7c4.7,2.9,9.4,5.6,13.9,8.6c2.6,1.8,4.1,1.1,5.5-1.5
		c4-7.3,1.5-15.5-6.4-19.9c-7.1-3.9-14.3-2.3-19.3,4.5c-4.8,6.6-4.4,14.7,1.1,20c5.9,5.7,13.5,6.2,20.9,0.2c-4.2-1.4-7.5-3-10.9-3.5
		C524.6,756.4,522.7,753.9,524.3,748.7z M618.6,788.1c9-0.1,16-7.1,15.8-15.8c-0.3-9.2-6.7-15.2-16.1-15.1
		c-8.8,0.1-15.5,6.9-15.2,15.5C603.3,781.6,610,788.2,618.6,788.1z"/>
	<path class="st0" d="M434.5,264.9c0,24.7-20.2,44.8-44.9,44.7c-24.6-0.1-45-20.3-45-44.8c-0.1-24.3,20.4-44.9,44.9-45
		C414.3,219.7,434.5,240,434.5,264.9z"/>
	<path class="st0" d="M878.3,729.5c0.1-23.3,19-42.1,42.3-42.1c22.8,0.1,42.1,19.4,42,42.1c0,23.2-19.2,42.6-42,42.6
		C897.3,772.2,878.3,753.1,878.3,729.5z"/>
	<path class="st0" d="M690.2,239.2c0.1,14.8-11.9,26.9-26.5,26.9c-14.8-0.1-26.6-11.9-26.6-26.7c0-14.8,12-27,26.7-26.5
		C678.7,213.3,690.1,224.6,690.2,239.2z"/>
	<path class="st0" d="M452.3,497.2c-0.2-3.8-0.2-6.7-0.6-9.5c-1.6-12-10-16-19.1-8.2c-6,5.2-11.1,11.9-15.4,18.7
		c-6.5,10.3-9.9,21.8-9.3,34.2c0.4,8.7,5.7,15.8,12.6,17.4c8,1.9,13.2-2.8,17.8-8.5c0.4-0.5,0.8-1.1,1.2-1.6
		C448.3,526.5,451.4,511.7,452.3,497.2z"/>
	<path class="st0" d="M452.3,497.2c-0.8,14.5-4,29.3-12.8,42.5c-0.4,0.6-0.8,1.1-1.2,1.6c-4.6,5.7-9.7,10.4-17.8,8.5
		c-6.9-1.6-12.2-8.7-12.6-17.4c-0.6-12.3,2.8-23.9,9.3-34.2c4.3-6.8,9.4-13.5,15.4-18.7c9.1-7.8,17.5-3.9,19.1,8.2
		C452.1,490.5,452.1,493.4,452.3,497.2z"/>
	<path class="st0" d="M702,736.8c4.5-0.1,8.5,3.9,8.3,7.8c-0.2,3.6-2.2,5.8-5.9,6.1c-4,0.2-7.7-3.3-7.6-7.5
		C696.7,739.2,698.9,737.1,702,736.8z"/>
	<path class="st0" d="M724.2,718.1c0-3.5,2.9-6.4,6.3-6.4c3.7,0,7.6,4.2,7.5,7.9c-0.2,3.8-2.4,5.8-6,6
		C728.2,725.9,724.2,721.9,724.2,718.1z"/>
	<path class="st0" d="M491.4,726.1c5.1-5.2,9.7-9.9,14.8-15c3.8,2.9,7,6.1,6.7,11.3c-0.3,4.3-4.7,9-9.3,10
		C498,733.6,494.7,729.9,491.4,726.1z"/>
	<path class="st0" d="M665.1,752.8c2.3,2.7,4.6,5.5,7.4,8.8c-2.5,1.1-4.7,2-8.1,3.4c-0.2-4.5-0.4-8.2-0.6-11.9
		C664.3,753.1,664.7,753,665.1,752.8z"/>
	<path class="st0" d="M535.8,749.4c-2.8-1.7-5.6-3.4-8.4-5.1c0.1-0.6,0.2-1.3,0.3-1.9c2,0,4.4-0.7,5.9,0.2c1.7,1,2.7,3.4,4,5.2
		C537,748.3,536.4,748.9,535.8,749.4z"/>
	<path class="st0" d="M618,765.5c4.4-0.1,6.6,2.3,6.8,6.7c0.2,4.7-2.1,7.4-6.1,7.3c-4.6-0.1-5.8-3.1-5.9-7
		C612.6,768.5,614,765.7,618,765.5z"/>
</g>
</svg>
